<?xml version="1.0" encoding="UTF-8"?>
<mxfile host="app.diagrams.net" modified="2025-07-25T00:00:00.000Z" agent="Claude" version="24.7.6" etag="drawio-erd-complete" type="device">
  <diagram name="Salesforce Metadata Extractor ERD" id="salesforce-metadata-erd-complete">
    <mxGraphModel dx="1422" dy="794" grid="1" gridSize="10" guides="1" tooltips="1" connect="1" arrows="1" fold="1" page="1" pageScale="1" pageWidth="1654" pageHeight="1169" math="0" shadow="0">
      <root>
        <mxCell id="0"/>
        <mxCell id="1" parent="0"/>
        
        <!-- Organizations Table -->
        <mxCell id="organizations" value="&lt;div style=&quot;box-sizing:border-box;width:100%;background:#dae8fc;padding:4px;&quot;&gt;&lt;b&gt;organizations&lt;/b&gt;&lt;/div&gt;&lt;table style=&quot;width:100%;font-size:1em;&quot; cellpadding=&quot;2&quot; cellspacing=&quot;0&quot;&gt;&lt;tbody&gt;&lt;tr&gt;&lt;td&gt;&lt;b&gt;id&lt;/b&gt;&lt;/td&gt;&lt;td&gt;UUID&lt;/td&gt;&lt;/tr&gt;&lt;tr&gt;&lt;td&gt;name&lt;/td&gt;&lt;td&gt;VARCHAR(255)&lt;/td&gt;&lt;/tr&gt;&lt;tr&gt;&lt;td&gt;org_id&lt;/td&gt;&lt;td&gt;VARCHAR(18)&lt;/td&gt;&lt;/tr&gt;&lt;tr&gt;&lt;td&gt;instance_url&lt;/td&gt;&lt;td&gt;VARCHAR(255)&lt;/td&gt;&lt;/tr&gt;&lt;tr&gt;&lt;td&gt;org_type&lt;/td&gt;&lt;td&gt;VARCHAR(20)&lt;/td&gt;&lt;/tr&gt;&lt;tr&gt;&lt;td&gt;is_active&lt;/td&gt;&lt;td&gt;BOOLEAN&lt;/td&gt;&lt;/tr&gt;&lt;tr&gt;&lt;td&gt;created_at&lt;/td&gt;&lt;td&gt;TIMESTAMP&lt;/td&gt;&lt;/tr&gt;&lt;tr&gt;&lt;td&gt;updated_at&lt;/td&gt;&lt;td&gt;TIMESTAMP&lt;/td&gt;&lt;/tr&gt;&lt;/tbody&gt;&lt;/table&gt;" style="verticalAlign=top;align=left;overflow=fill;html=1;strokeWidth=1;" vertex="1" parent="1">
          <mxGeometry x="50" y="50" width="200" height="180" as="geometry"/>
        </mxCell>
        
        <!-- Extraction Jobs Table -->
        <mxCell id="extraction_jobs" value="&lt;div style=&quot;box-sizing:border-box;width:100%;background:#dae8fc;padding:4px;&quot;&gt;&lt;b&gt;extraction_jobs&lt;/b&gt;&lt;/div&gt;&lt;table style=&quot;width:100%;font-size:1em;&quot; cellpadding=&quot;2&quot; cellspacing=&quot;0&quot;&gt;&lt;tbody&gt;&lt;tr&gt;&lt;td&gt;&lt;b&gt;id&lt;/b&gt;&lt;/td&gt;&lt;td&gt;UUID&lt;/td&gt;&lt;/tr&gt;&lt;tr&gt;&lt;td&gt;organization_id&lt;/td&gt;&lt;td&gt;UUID&lt;/td&gt;&lt;/tr&gt;&lt;tr&gt;&lt;td&gt;status&lt;/td&gt;&lt;td&gt;VARCHAR(20)&lt;/td&gt;&lt;/tr&gt;&lt;tr&gt;&lt;td&gt;started_at&lt;/td&gt;&lt;td&gt;TIMESTAMP&lt;/td&gt;&lt;/tr&gt;&lt;tr&gt;&lt;td&gt;completed_at&lt;/td&gt;&lt;td&gt;TIMESTAMP&lt;/td&gt;&lt;/tr&gt;&lt;tr&gt;&lt;td&gt;total_files&lt;/td&gt;&lt;td&gt;INTEGER&lt;/td&gt;&lt;/tr&gt;&lt;tr&gt;&lt;td&gt;output_path&lt;/td&gt;&lt;td&gt;VARCHAR(500)&lt;/td&gt;&lt;/tr&gt;&lt;tr&gt;&lt;td&gt;error_message&lt;/td&gt;&lt;td&gt;TEXT&lt;/td&gt;&lt;/tr&gt;&lt;tr&gt;&lt;td&gt;job_data&lt;/td&gt;&lt;td&gt;JSONB&lt;/td&gt;&lt;/tr&gt;&lt;/tbody&gt;&lt;/table&gt;" style="verticalAlign=top;align=left;overflow=fill;html=1;strokeWidth=1;" vertex="1" parent="1">
          <mxGeometry x="320" y="50" width="200" height="200" as="geometry"/>
        </mxCell>
        
        <!-- Metadata Types Table -->
        <mxCell id="metadata_types" value="&lt;div style=&quot;box-sizing:border-box;width:100%;background:#dae8fc;padding:4px;&quot;&gt;&lt;b&gt;metadata_types&lt;/b&gt;&lt;/div&gt;&lt;table style=&quot;width:100%;font-size:1em;&quot; cellpadding=&quot;2&quot; cellspacing=&quot;0&quot;&gt;&lt;tbody&gt;&lt;tr&gt;&lt;td&gt;&lt;b&gt;id&lt;/b&gt;&lt;/td&gt;&lt;td&gt;UUID&lt;/td&gt;&lt;/tr&gt;&lt;tr&gt;&lt;td&gt;name&lt;/td&gt;&lt;td&gt;VARCHAR(100)&lt;/td&gt;&lt;/tr&gt;&lt;tr&gt;&lt;td&gt;display_name&lt;/td&gt;&lt;td&gt;VARCHAR(100)&lt;/td&gt;&lt;/tr&gt;&lt;tr&gt;&lt;td&gt;description&lt;/td&gt;&lt;td&gt;TEXT&lt;/td&gt;&lt;/tr&gt;&lt;tr&gt;&lt;td&gt;icon&lt;/td&gt;&lt;td&gt;VARCHAR(10)&lt;/td&gt;&lt;/tr&gt;&lt;tr&gt;&lt;td&gt;file_extension&lt;/td&gt;&lt;td&gt;VARCHAR(20)&lt;/td&gt;&lt;/tr&gt;&lt;/tbody&gt;&lt;/table&gt;" style="verticalAlign=top;align=left;overflow=fill;html=1;strokeWidth=1;" vertex="1" parent="1">
          <mxGeometry x="590" y="50" width="200" height="140" as="geometry"/>
        </mxCell>
        
        <!-- Metadata Components Table -->
        <mxCell id="metadata_components" value="&lt;div style=&quot;box-sizing:border-box;width:100%;background:#dae8fc;padding:4px;&quot;&gt;&lt;b&gt;metadata_components&lt;/b&gt;&lt;/div&gt;&lt;table style=&quot;width:100%;font-size:1em;&quot; cellpadding=&quot;2&quot; cellspacing=&quot;0&quot;&gt;&lt;tbody&gt;&lt;tr&gt;&lt;td&gt;&lt;b&gt;id&lt;/b&gt;&lt;/td&gt;&lt;td&gt;UUID&lt;/td&gt;&lt;/tr&gt;&lt;tr&gt;&lt;td&gt;extraction_job_id&lt;/td&gt;&lt;td&gt;UUID&lt;/td&gt;&lt;/tr&gt;&lt;tr&gt;&lt;td&gt;metadata_type_id&lt;/td&gt;&lt;td&gt;UUID&lt;/td&gt;&lt;/tr&gt;&lt;tr&gt;&lt;td&gt;name&lt;/td&gt;&lt;td&gt;VARCHAR(255)&lt;/td&gt;&lt;/tr&gt;&lt;tr&gt;&lt;td&gt;full_name&lt;/td&gt;&lt;td&gt;VARCHAR(255)&lt;/td&gt;&lt;/tr&gt;&lt;tr&gt;&lt;td&gt;file_path&lt;/td&gt;&lt;td&gt;VARCHAR(500)&lt;/td&gt;&lt;/tr&gt;&lt;tr&gt;&lt;td&gt;file_size&lt;/td&gt;&lt;td&gt;INTEGER&lt;/td&gt;&lt;/tr&gt;&lt;tr&gt;&lt;td&gt;content_hash&lt;/td&gt;&lt;td&gt;VARCHAR(64)&lt;/td&gt;&lt;/tr&gt;&lt;tr&gt;&lt;td&gt;last_modified&lt;/td&gt;&lt;td&gt;TIMESTAMP&lt;/td&gt;&lt;/tr&gt;&lt;tr&gt;&lt;td&gt;api_version&lt;/td&gt;&lt;td&gt;VARCHAR(10)&lt;/td&gt;&lt;/tr&gt;&lt;tr&gt;&lt;td&gt;created_at&lt;/td&gt;&lt;td&gt;TIMESTAMP&lt;/td&gt;&lt;/tr&gt;&lt;/tbody&gt;&lt;/table&gt;" style="verticalAlign=top;align=left;overflow=fill;html=1;strokeWidth=1;" vertex="1" parent="1">
          <mxGeometry x="320" y="300" width="200" height="240" as="geometry"/>
        </mxCell>
        
        <!-- Metadata Dependencies Table -->
        <mxCell id="metadata_dependencies" value="&lt;div style=&quot;box-sizing:border-box;width:100%;background:#dae8fc;padding:4px;&quot;&gt;&lt;b&gt;metadata_dependencies&lt;/b&gt;&lt;/div&gt;&lt;table style=&quot;width:100%;font-size:1em;&quot; cellpadding=&quot;2&quot; cellspacing=&quot;0&quot;&gt;&lt;tbody&gt;&lt;tr&gt;&lt;td&gt;&lt;b&gt;id&lt;/b&gt;&lt;/td&gt;&lt;td&gt;UUID&lt;/td&gt;&lt;/tr&gt;&lt;tr&gt;&lt;td&gt;from_component_id&lt;/td&gt;&lt;td&gt;UUID&lt;/td&gt;&lt;/tr&gt;&lt;tr&gt;&lt;td&gt;to_component_id&lt;/td&gt;&lt;td&gt;UUID&lt;/td&gt;&lt;/tr&gt;&lt;tr&gt;&lt;td&gt;dependency_type&lt;/td&gt;&lt;td&gt;VARCHAR(50)&lt;/td&gt;&lt;/tr&gt;&lt;tr&gt;&lt;td&gt;relationship_strength&lt;/td&gt;&lt;td&gt;VARCHAR(20)&lt;/td&gt;&lt;/tr&gt;&lt;tr&gt;&lt;td&gt;description&lt;/td&gt;&lt;td&gt;TEXT&lt;/td&gt;&lt;/tr&gt;&lt;tr&gt;&lt;td&gt;metadata_field&lt;/td&gt;&lt;td&gt;VARCHAR(100)&lt;/td&gt;&lt;/tr&gt;&lt;tr&gt;&lt;td&gt;created_at&lt;/td&gt;&lt;td&gt;TIMESTAMP&lt;/td&gt;&lt;/tr&gt;&lt;/tbody&gt;&lt;/table&gt;" style="verticalAlign=top;align=left;overflow=fill;html=1;strokeWidth=1;" vertex="1" parent="1">
          <mxGeometry x="590" y="300" width="220" height="180" as="geometry"/>
        </mxCell>
        
        <!-- Users Table -->
        <mxCell id="users" value="&lt;div style=&quot;box-sizing:border-box;width:100%;background:#fff2cc;padding:4px;&quot;&gt;&lt;b&gt;users&lt;/b&gt;&lt;/div&gt;&lt;table style=&quot;width:100%;font-size:1em;&quot; cellpadding=&quot;2&quot; cellspacing=&quot;0&quot;&gt;&lt;tbody&gt;&lt;tr&gt;&lt;td&gt;&lt;b&gt;id&lt;/b&gt;&lt;/td&gt;&lt;td&gt;UUID&lt;/td&gt;&lt;/tr&gt;&lt;tr&gt;&lt;td&gt;username&lt;/td&gt;&lt;td&gt;VARCHAR(100)&lt;/td&gt;&lt;/tr&gt;&lt;tr&gt;&lt;td&gt;email&lt;/td&gt;&lt;td&gt;VARCHAR(255)&lt;/td&gt;&lt;/tr&gt;&lt;tr&gt;&lt;td&gt;full_name&lt;/td&gt;&lt;td&gt;VARCHAR(255)&lt;/td&gt;&lt;/tr&gt;&lt;tr&gt;&lt;td&gt;is_active&lt;/td&gt;&lt;td&gt;BOOLEAN&lt;/td&gt;&lt;/tr&gt;&lt;tr&gt;&lt;td&gt;created_at&lt;/td&gt;&lt;td&gt;TIMESTAMP&lt;/td&gt;&lt;/tr&gt;&lt;tr&gt;&lt;td&gt;last_login&lt;/td&gt;&lt;td&gt;TIMESTAMP&lt;/td&gt;&lt;/tr&gt;&lt;/tbody&gt;&lt;/table&gt;" style="verticalAlign=top;align=left;overflow=fill;html=1;strokeWidth=1;" vertex="1" parent="1">
          <mxGeometry x="50" y="300" width="200" height="160" as="geometry"/>
        </mxCell>
        
        <!-- Lists Table -->
        <mxCell id="lists" value="&lt;div style=&quot;box-sizing:border-box;width:100%;background:#fff2cc;padding:4px;&quot;&gt;&lt;b&gt;lists&lt;/b&gt;&lt;/div&gt;&lt;table style=&quot;width:100%;font-size:1em;&quot; cellpadding=&quot;2&quot; cellspacing=&quot;0&quot;&gt;&lt;tbody&gt;&lt;tr&gt;&lt;td&gt;&lt;b&gt;id&lt;/b&gt;&lt;/td&gt;&lt;td&gt;UUID&lt;/td&gt;&lt;/tr&gt;&lt;tr&gt;&lt;td&gt;user_id&lt;/td&gt;&lt;td&gt;UUID&lt;/td&gt;&lt;/tr&gt;&lt;tr&gt;&lt;td&gt;name&lt;/td&gt;&lt;td&gt;VARCHAR(255)&lt;/td&gt;&lt;/tr&gt;&lt;tr&gt;&lt;td&gt;description&lt;/td&gt;&lt;td&gt;TEXT&lt;/td&gt;&lt;/tr&gt;&lt;tr&gt;&lt;td&gt;color&lt;/td&gt;&lt;td&gt;VARCHAR(7)&lt;/td&gt;&lt;/tr&gt;&lt;tr&gt;&lt;td&gt;is_public&lt;/td&gt;&lt;td&gt;BOOLEAN&lt;/td&gt;&lt;/tr&gt;&lt;tr&gt;&lt;td&gt;created_at&lt;/td&gt;&lt;td&gt;TIMESTAMP&lt;/td&gt;&lt;/tr&gt;&lt;tr&gt;&lt;td&gt;updated_at&lt;/td&gt;&lt;td&gt;TIMESTAMP&lt;/td&gt;&lt;/tr&gt;&lt;/tbody&gt;&lt;/table&gt;" style="verticalAlign=top;align=left;overflow=fill;html=1;strokeWidth=1;" vertex="1" parent="1">
          <mxGeometry x="50" y="520" width="200" height="180" as="geometry"/>
        </mxCell>
        
        <!-- List Metadata Mappings Table -->
        <mxCell id="list_metadata_mappings" value="&lt;div style=&quot;box-sizing:border-box;width:100%;background:#fff2cc;padding:4px;&quot;&gt;&lt;b&gt;list_metadata_mappings&lt;/b&gt;&lt;/div&gt;&lt;table style=&quot;width:100%;font-size:1em;&quot; cellpadding=&quot;2&quot; cellspacing=&quot;0&quot;&gt;&lt;tbody&gt;&lt;tr&gt;&lt;td&gt;&lt;b&gt;id&lt;/b&gt;&lt;/td&gt;&lt;td&gt;UUID&lt;/td&gt;&lt;/tr&gt;&lt;tr&gt;&lt;td&gt;list_id&lt;/td&gt;&lt;td&gt;UUID&lt;/td&gt;&lt;/tr&gt;&lt;tr&gt;&lt;td&gt;metadata_component_id&lt;/td&gt;&lt;td&gt;UUID&lt;/td&gt;&lt;/tr&gt;&lt;tr&gt;&lt;td&gt;added_at&lt;/td&gt;&lt;td&gt;TIMESTAMP&lt;/td&gt;&lt;/tr&gt;&lt;tr&gt;&lt;td&gt;added_by&lt;/td&gt;&lt;td&gt;UUID&lt;/td&gt;&lt;/tr&gt;&lt;tr&gt;&lt;td&gt;notes&lt;/td&gt;&lt;td&gt;TEXT&lt;/td&gt;&lt;/tr&gt;&lt;/tbody&gt;&lt;/table&gt;" style="verticalAlign=top;align=left;overflow=fill;html=1;strokeWidth=1;" vertex="1" parent="1">
          <mxGeometry x="320" y="580" width="220" height="140" as="geometry"/>
        </mxCell>
        
        <!-- AI Summaries Table -->
        <mxCell id="ai_summaries" value="&lt;div style=&quot;box-sizing:border-box;width:100%;background:#e1d5e7;padding:4px;&quot;&gt;&lt;b&gt;ai_summaries&lt;/b&gt;&lt;/div&gt;&lt;table style=&quot;width:100%;font-size:1em;&quot; cellpadding=&quot;2&quot; cellspacing=&quot;0&quot;&gt;&lt;tbody&gt;&lt;tr&gt;&lt;td&gt;&lt;b&gt;id&lt;/b&gt;&lt;/td&gt;&lt;td&gt;UUID&lt;/td&gt;&lt;/tr&gt;&lt;tr&gt;&lt;td&gt;metadata_component_id&lt;/td&gt;&lt;td&gt;UUID&lt;/td&gt;&lt;/tr&gt;&lt;tr&gt;&lt;td&gt;summary_text&lt;/td&gt;&lt;td&gt;TEXT&lt;/td&gt;&lt;/tr&gt;&lt;tr&gt;&lt;td&gt;model_version&lt;/td&gt;&lt;td&gt;VARCHAR(50)&lt;/td&gt;&lt;/tr&gt;&lt;tr&gt;&lt;td&gt;confidence_score&lt;/td&gt;&lt;td&gt;DECIMAL(3,2)&lt;/td&gt;&lt;/tr&gt;&lt;tr&gt;&lt;td&gt;created_at&lt;/td&gt;&lt;td&gt;TIMESTAMP&lt;/td&gt;&lt;/tr&gt;&lt;/tbody&gt;&lt;/table&gt;" style="verticalAlign=top;align=left;overflow=fill;html=1;strokeWidth=1;" vertex="1" parent="1">
          <mxGeometry x="590" y="530" width="220" height="140" as="geometry"/>
        </mxCell>
        
        <!-- Relationships -->
        
        <!-- Organizations to Extraction Jobs -->
        <mxCell id="org_to_jobs" style="endArrow=none;html=1;rounded=0;exitX=1;exitY=0.5;entryX=0;entryY=0.5;startArrow=ERone;startFill=0;endArrow=ERmany;endFill=0;" edge="1" parent="1" source="organizations" target="extraction_jobs">
          <mxGeometry relative="1" as="geometry"/>
        </mxCell>
        
        <!-- Extraction Jobs to Metadata Components -->
        <mxCell id="jobs_to_components" style="endArrow=none;html=1;rounded=0;exitX=0.5;exitY=1;entryX=0.5;entryY=0;startArrow=ERone;startFill=0;endArrow=ERmany;endFill=0;" edge="1" parent="1" source="extraction_jobs" target="metadata_components">
          <mxGeometry relative="1" as="geometry"/>
        </mxCell>
        
        <!-- Metadata Types to Metadata Components -->
        <mxCell id="types_to_components" style="endArrow=none;html=1;rounded=0;exitX=0;exitY=1;entryX=1;entryY=0;startArrow=ERone;startFill=0;endArrow=ERmany;endFill=0;" edge="1" parent="1" source="metadata_types" target="metadata_components">
          <mxGeometry relative="1" as="geometry"/>
        </mxCell>
        
        <!-- Metadata Components to Dependencies (from) -->
        <mxCell id="components_to_deps_from" style="endArrow=none;html=1;rounded=0;exitX=1;exitY=0.3;entryX=0;entryY=0.3;startArrow=ERone;startFill=0;endArrow=ERmany;endFill=0;" edge="1" parent="1" source="metadata_components" target="metadata_dependencies">
          <mxGeometry relative="1" as="geometry"/>
        </mxCell>
        
        <!-- Metadata Components to Dependencies (to) - self reference -->
        <mxCell id="components_to_deps_to" style="endArrow=none;html=1;rounded=0;exitX=1;exitY=0.7;entryX=0;entryY=0.7;startArrow=ERone;startFill=0;endArrow=ERmany;endFill=0;dashed=1;" edge="1" parent="1" source="metadata_components" target="metadata_dependencies">
          <mxGeometry relative="1" as="geometry"/>
        </mxCell>
        
        <!-- Users to Lists -->
        <mxCell id="users_to_lists" style="endArrow=none;html=1;rounded=0;exitX=0.5;exitY=1;entryX=0.5;entryY=0;startArrow=ERone;startFill=0;endArrow=ERmany;endFill=0;" edge="1" parent="1" source="users" target="lists">
          <mxGeometry relative="1" as="geometry"/>
        </mxCell>
        
        <!-- Lists to List Metadata Mappings -->
        <mxCell id="lists_to_mappings" style="endArrow=none;html=1;rounded=0;exitX=1;exitY=0.5;entryX=0;entryY=0.5;startArrow=ERone;startFill=0;endArrow=ERmany;endFill=0;" edge="1" parent="1" source="lists" target="list_metadata_mappings">
          <mxGeometry relative="1" as="geometry"/>
        </mxCell>
        
        <!-- Metadata Components to List Metadata Mappings -->
        <mxCell id="components_to_mappings" style="endArrow=none;html=1;rounded=0;exitX=0.5;exitY=1;entryX=0.5;entryY=0;startArrow=ERone;startFill=0;endArrow=ERmany;endFill=0;" edge="1" parent="1" source="metadata_components" target="list_metadata_mappings">
          <mxGeometry relative="1" as="geometry"/>
        </mxCell>
        
        <!-- Users to List Metadata Mappings (added_by) -->
        <mxCell id="users_to_mappings" style="endArrow=none;html=1;rounded=0;exitX=1;exitY=1;entryX=0;entryY=0;startArrow=ERzeroToOne;startFill=0;endArrow=ERzeroToMany;endFill=0;dashed=1;" edge="1" parent="1" source="users" target="list_metadata_mappings">
          <mxGeometry relative="1" as="geometry"/>
        </mxCell>
        
        <!-- Metadata Components to AI Summaries -->
        <mxCell id="components_to_summaries" style="endArrow=none;html=1;rounded=0;exitX=1;exitY=1;entryX=0;entryY=0.5;startArrow=ERone;startFill=0;endArrow=ERzeroToOne;endFill=0;" edge="1" parent="1" source="metadata_components" target="ai_summaries">
          <mxGeometry relative="1" as="geometry"/>
        </mxCell>
        
        <!-- Legend -->
        <mxCell id="legend" value="&lt;div style=&quot;box-sizing:border-box;width:100%;background:#f8cecc;padding:4px;&quot;&gt;&lt;b&gt;Legend&lt;/b&gt;&lt;/div&gt;&lt;table style=&quot;width:100%;font-size:0.9em;&quot; cellpadding=&quot;2&quot; cellspacing=&quot;0&quot;&gt;&lt;tbody&gt;&lt;tr&gt;&lt;td style=&quot;background:#dae8fc;&quot;&gt;&lt;/td&gt;&lt;td&gt;Core Metadata&lt;/td&gt;&lt;/tr&gt;&lt;tr&gt;&lt;td style=&quot;background:#fff2cc;&quot;&gt;&lt;/td&gt;&lt;td&gt;User &amp; Lists&lt;/td&gt;&lt;/tr&gt;&lt;tr&gt;&lt;td style=&quot;background:#e1d5e7;&quot;&gt;&lt;/td&gt;&lt;td&gt;AI Features&lt;/td&gt;&lt;/tr&gt;&lt;tr&gt;&lt;td&gt;—&lt;/td&gt;&lt;td&gt;One-to-Many&lt;/td&gt;&lt;/tr&gt;&lt;tr&gt;&lt;td&gt;••••&lt;/td&gt;&lt;td&gt;Optional&lt;/td&gt;&lt;/tr&gt;&lt;/tbody&gt;&lt;/table&gt;" style="verticalAlign=top;align=left;overflow=fill;html=1;" vertex="1" parent="1">
          <mxGeometry x="870" y="50" width="160" height="140" as="geometry"/>
        </mxCell>
        
      </root>
    </mxGraphModel>
  </diagram>
</mxfile>